HIERARCHY
ROOT Hips
{
	OFFSET 0.000000 71.427986 0.000000
	CHANNELS 6 Xposition Yposition Zposition Xrotation Yrotation Zrotation
	JOINT Pelvis
	{
		OFFSET 0.000000 0.000000 0.000000
		CHANNELS 3 Xrotation Yrotation Zrotation
		JOINT LeftUpLeg
		{
			OFFSET 6.797100 -2.508499 -1.318700
			CHANNELS 3 Xrotation Yrotation Zrotation
			JOINT LeftLeg
			{
				OFFSET 0.069008 -29.241863 0.690200
				CHANNELS 3 Xrotation Yrotation Zrotation
				JOINT LeftFoot
				{
					OFFSET -0.069008 -29.568123 -0.266800
					CHANNELS 3 Xrotation Yrotation Zrotation
					JOINT LeftToeBase
					{
						OFFSET 3.145500 -8.631000 16.059900
						CHANNELS 3 Xrotation Yrotation Zrotation
						End Site
						{
							OFFSET 0.000000 18.501587 0.000000
						}
					}
				}
			}
			JOINT Left_ShortSleeve
			{
				OFFSET 0.265923 -10.480953 1.153800
				CHANNELS 3 Xrotation Yrotation Zrotation
				End Site
				{
					OFFSET 1.725763 19.823879 0.000000
				}
			}
		}
		JOINT RightUpLeg
		{
			OFFSET -6.797100 -2.508499 -1.318700
			CHANNELS 3 Xrotation Yrotation Zrotation
			JOINT RightLeg
			{
				OFFSET -0.082453 -29.241932 0.688000
				CHANNELS 3 Xrotation Yrotation Zrotation
				JOINT RightFoot
				{
					OFFSET 0.082453 -29.568058 -0.264600
					CHANNELS 3 Xrotation Yrotation Zrotation
					JOINT RightToeBase
					{
						OFFSET -3.115300 -8.682800 16.113400
						CHANNELS 3 Xrotation Yrotation Zrotation
						End Site
						{
							OFFSET 0.000000 18.567114 0.000000
						}
					}
				}
			}
			JOINT Right_ShortSleeve
			{
				OFFSET -0.265923 -10.480953 1.153800
				CHANNELS 3 Xrotation Yrotation Zrotation
				End Site
				{
					OFFSET -1.725766 19.823910 0.000000
				}
			}
		}
	}
	JOINT Spine
	{
		OFFSET 0.000000 13.368103 0.470500
		CHANNELS 3 Xrotation Yrotation Zrotation
		JOINT Spine1
		{
			OFFSET 0.147000 13.837402 0.538800
			CHANNELS 3 Xrotation Yrotation Zrotation
			JOINT Spine2
			{
				OFFSET 0.168000 16.242897 -1.435500
				CHANNELS 3 Xrotation Yrotation Zrotation
				JOINT Neck
				{
					OFFSET 0.217200 18.631500 -1.679100
					CHANNELS 3 Xrotation Yrotation Zrotation
					JOINT Head
					{
						OFFSET 0.000000 6.599396 1.385900
						CHANNELS 3 Xrotation Yrotation Zrotation
						JOINT Hat
						{
							OFFSET -0.532200 27.220596 -10.096100
							CHANNELS 3 Xrotation Yrotation Zrotation
							End Site
							{
								OFFSET 0.000000 22.029861 0.000000
							}
						}
						JOINT HairD
						{
							OFFSET -10.777400 17.437393 -1.325900
							CHANNELS 3 Xrotation Yrotation Zrotation
							JOINT HairD1
							{
								OFFSET -3.290299 -11.051193 1.062200
								CHANNELS 3 Xrotation Yrotation Zrotation
								End Site
								{
									OFFSET 0.000000 11.579437 0.000000
								}
							}
						}
						JOINT HairB
						{
							OFFSET -10.777400 17.437393 1.467900
							CHANNELS 3 Xrotation Yrotation Zrotation
							JOINT HairB1
							{
								OFFSET -1.561200 -12.956299 3.590200
								CHANNELS 3 Xrotation Yrotation Zrotation
								End Site
								{
									OFFSET 0.000000 13.534866 0.000000
								}
							}
						}
						JOINT HairA
						{
							OFFSET 9.713100 17.437393 1.467900
							CHANNELS 3 Xrotation Yrotation Zrotation
							JOINT HairA1
							{
								OFFSET 1.561200 -12.956299 3.590200
								CHANNELS 3 Xrotation Yrotation Zrotation
								End Site
								{
									OFFSET 0.000000 13.534866 0.000000
								}
							}
						}
						JOINT HairC
						{
							OFFSET 9.713100 17.437393 -1.325900
							CHANNELS 3 Xrotation Yrotation Zrotation
							JOINT HairC1
							{
								OFFSET 3.290300 -11.051193 1.062200
								CHANNELS 3 Xrotation Yrotation Zrotation
								End Site
								{
									OFFSET 0.000000 11.579437 0.000000
								}
							}
						}
					}
				}
				JOINT LeftShoulder
				{
					OFFSET 5.101800 15.108002 -2.763700
					CHANNELS 3 Xrotation Yrotation Zrotation
					JOINT LeftArm
					{
						OFFSET 9.825497 2.506317 -1.597400
						CHANNELS 3 Xrotation Yrotation Zrotation
						JOINT LeftForeArm
						{
							OFFSET 21.966244 0.000000 0.000000
							CHANNELS 3 Xrotation Yrotation Zrotation
							JOINT LeftHand
							{
								OFFSET 33.879036 0.000000 0.000000
								CHANNELS 3 Xrotation Yrotation Zrotation
								JOINT LeftHandThumb1
								{
									OFFSET 6.715286 -2.359680 3.363841
									CHANNELS 3 Xrotation Yrotation Zrotation
									JOINT LeftHandThumb2
									{
										OFFSET 2.507072 -1.447464 1.447461
										CHANNELS 3 Xrotation Yrotation Zrotation
										JOINT LeftHandThumb3
										{
											OFFSET 2.898338 -1.673355 1.673357
											CHANNELS 3 Xrotation Yrotation Zrotation
											End Site
											{
												OFFSET -0.295959 3.727692 -0.131651
											}
										}
									}
								}
								JOINT LeftHandIndex1
								{
									OFFSET 14.190811 -0.254547 3.840278
									CHANNELS 3 Xrotation Yrotation Zrotation
									JOINT LeftHandIndex2
									{
										OFFSET 3.551727 0.000000 -0.000000
										CHANNELS 3 Xrotation Yrotation Zrotation
										JOINT LeftHandIndex3
										{
											OFFSET 2.894196 0.000000 0.000000
											CHANNELS 3 Xrotation Yrotation Zrotation
											End Site
											{
												OFFSET -1.000603 2.690872 0.366626
											}
										}
									}
								}
								JOINT LeftHandMiddle1
								{
									OFFSET 13.776489 0.000000 0.000000
									CHANNELS 3 Xrotation Yrotation Zrotation
									JOINT LeftHandMiddle2
									{
										OFFSET 3.438232 0.000000 0.000000
										CHANNELS 3 Xrotation Yrotation Zrotation
										JOINT LeftHandMiddle3
										{
											OFFSET 3.691551 0.000000 0.000000
											CHANNELS 3 Xrotation Yrotation Zrotation
											End Site
											{
												OFFSET -1.082298 3.499527 0.457670
											}
										}
									}
								}
								JOINT LeftHandRing1
								{
									OFFSET 13.966164 -0.268127 -3.067488
									CHANNELS 3 Xrotation Yrotation Zrotation
									JOINT LeftHandRing2
									{
										OFFSET 3.162567 0.000000 0.000000
										CHANNELS 3 Xrotation Yrotation Zrotation
										JOINT LeftHandRing3
										{
											OFFSET 3.324348 0.000000 0.000000
											CHANNELS 3 Xrotation Yrotation Zrotation
											End Site
											{
												OFFSET -0.861900 3.184998 0.405154
											}
										}
									}
								}
								JOINT LeftHandPinky1
								{
									OFFSET 13.131393 -0.168503 -5.746925
									CHANNELS 3 Xrotation Yrotation Zrotation
									JOINT LeftHandPinky2
									{
										OFFSET 2.849182 0.000000 0.000000
										CHANNELS 3 Xrotation Yrotation Zrotation
										JOINT LeftHandPinky3
										{
											OFFSET 2.805038 0.000000 0.000000
											CHANNELS 3 Xrotation Yrotation Zrotation
											End Site
											{
												OFFSET -0.882500 2.642609 0.325652
											}
										}
									}
								}
							}
							JOINT Left_Sleeve
							{
								OFFSET 6.592125 -0.646545 0.805568
								CHANNELS 3 Xrotation Yrotation Zrotation
								End Site
								{
									OFFSET -0.000179 20.275787 -0.000000
								}
							}
						}
					}
				}
				JOINT RightShoulder
				{
					OFFSET -5.731700 15.108002 -2.763700
					CHANNELS 3 Xrotation Yrotation Zrotation
					JOINT RightArm
					{
						OFFSET -9.825497 2.506317 -1.597400
						CHANNELS 3 Xrotation Yrotation Zrotation
						JOINT RightForeArm
						{
							OFFSET -21.966242 0.000000 0.000000
							CHANNELS 3 Xrotation Yrotation Zrotation
							JOINT RightHand
							{
								OFFSET -33.879032 0.000000 0.000000
								CHANNELS 3 Xrotation Yrotation Zrotation
								JOINT RightHandThumb1
								{
									OFFSET -6.715286 -2.359680 3.363841
									CHANNELS 3 Xrotation Yrotation Zrotation
									JOINT RightHandThumb2
									{
										OFFSET -2.507072 -1.447464 1.447461
										CHANNELS 3 Xrotation Yrotation Zrotation
										JOINT RightHandThumb3
										{
											OFFSET -2.898338 -1.673355 1.673357
											CHANNELS 3 Xrotation Yrotation Zrotation
											End Site
											{
												OFFSET 0.295959 3.727692 -0.131651
											}
										}
									}
								}
								JOINT RightHandIndex1
								{
									OFFSET -14.190811 -0.254547 3.840278
									CHANNELS 3 Xrotation Yrotation Zrotation
									JOINT RightHandIndex2
									{
										OFFSET -3.551727 0.000000 -0.000000
										CHANNELS 3 Xrotation Yrotation Zrotation
										JOINT RightHandIndex3
										{
											OFFSET -2.894196 0.000000 0.000000
											CHANNELS 3 Xrotation Yrotation Zrotation
											End Site
											{
												OFFSET 1.000603 2.690872 0.366626
											}
										}
									}
								}
								JOINT RightHandMiddle1
								{
									OFFSET -13.776489 0.000000 0.000000
									CHANNELS 3 Xrotation Yrotation Zrotation
									JOINT RightHandMiddle2
									{
										OFFSET -3.438232 0.000000 0.000000
										CHANNELS 3 Xrotation Yrotation Zrotation
										JOINT RightHandMiddle3
										{
											OFFSET -3.691551 0.000000 0.000000
											CHANNELS 3 Xrotation Yrotation Zrotation
											End Site
											{
												OFFSET 1.082298 3.499527 0.457670
											}
										}
									}
								}
								JOINT RightHandRing1
								{
									OFFSET -13.966164 -0.268127 -3.067488
									CHANNELS 3 Xrotation Yrotation Zrotation
									JOINT RightHandRing2
									{
										OFFSET -3.162567 0.000000 0.000000
										CHANNELS 3 Xrotation Yrotation Zrotation
										JOINT RightHandRing3
										{
											OFFSET -3.324348 0.000000 0.000000
											CHANNELS 3 Xrotation Yrotation Zrotation
											End Site
											{
												OFFSET 0.861900 3.184998 0.405154
											}
										}
									}
								}
								JOINT RightHandPinky1
								{
									OFFSET -13.131393 -0.168503 -5.746925
									CHANNELS 3 Xrotation Yrotation Zrotation
									JOINT RightHandPinky2
									{
										OFFSET -2.849182 0.000000 0.000000
										CHANNELS 3 Xrotation Yrotation Zrotation
										JOINT RightHandPinky3
										{
											OFFSET -2.805038 0.000000 0.000000
											CHANNELS 3 Xrotation Yrotation Zrotation
											End Site
											{
												OFFSET 0.882500 2.642609 0.325652
											}
										}
									}
								}
							}
							JOINT Right_Sleeve
							{
								OFFSET -6.592125 -0.646545 0.805568
								CHANNELS 3 Xrotation Yrotation Zrotation
								End Site
								{
									OFFSET 0.000179 20.275787 -0.000000
								}
							}
						}
					}
				}
				JOINT Bind_Right_JacketString
				{
					OFFSET -3.534800 11.969597 7.200700
					CHANNELS 3 Xrotation Yrotation Zrotation
					JOINT Bind_Right_JacketString1
					{
						OFFSET -0.319900 -6.102600 2.794100
						CHANNELS 3 Xrotation Yrotation Zrotation
						End Site
						{
							OFFSET 0.000000 6.719452 0.000000
						}
					}
				}
				JOINT Bind_Left_JacketString
				{
					OFFSET 2.904800 11.969597 7.200700
					CHANNELS 3 Xrotation Yrotation Zrotation
					JOINT Bind_Left_JacketString1
					{
						OFFSET 0.364800 -5.904503 3.186800
						CHANNELS 3 Xrotation Yrotation Zrotation
						End Site
						{
							OFFSET 0.000000 6.719513 0.000000
						}
					}
				}
				JOINT HairE
				{
					OFFSET 5.915200 17.612701 -11.592200
					CHANNELS 3 Xrotation Yrotation Zrotation
					JOINT HairE1
					{
						OFFSET 0.289200 -7.171898 -1.284500
						CHANNELS 3 Xrotation Yrotation Zrotation
						End Site
						{
							OFFSET 0.000000 7.291756 0.000000
						}
					}
				}
				JOINT HairF
				{
					OFFSET -0.864800 17.612701 -11.592200
					CHANNELS 3 Xrotation Yrotation Zrotation
					JOINT HairF1
					{
						OFFSET 0.000000 -14.087097 -2.127501
						CHANNELS 3 Xrotation Yrotation Zrotation
						End Site
						{
							OFFSET 0.000000 14.246841 0.000000
						}
					}
				}
				JOINT HairG
				{
					OFFSET -8.087700 17.612701 -11.592200
					CHANNELS 3 Xrotation Yrotation Zrotation
					JOINT HairG1
					{
						OFFSET -0.293600 -6.081398 -0.910100
						CHANNELS 3 Xrotation Yrotation Zrotation
						End Site
						{
							OFFSET 0.000000 6.156120 0.000000
						}
					}
				}
			}
		}
	}
	JOINT Pouch
	{
		OFFSET 0.000000 4.394501 10.847300
		CHANNELS 3 Xrotation Yrotation Zrotation
		End Site
		{
			OFFSET 0.000000 21.880577 0.000000
		}
	}
	JOINT Bag
	{
		OFFSET -13.229000 4.813004 -0.593300
		CHANNELS 3 Xrotation Yrotation Zrotation
		End Site
		{
			OFFSET 0.000000 21.880577 0.000000
		}
	}
	JOINT OccupyGuyFacialAnim_Joint
	{
		OFFSET 1.000000 -70.206398 -1.655000
		CHANNELS 3 Xrotation Yrotation Zrotation
		End Site
		{
			OFFSET 0.000000 21.880577 0.000000
		}
	}
}
MOTION
Frames: 4
Frame Time: 0.033333
-1.682560 67.965584 0.084659 75.791802 -75.404824 76.114194 0.000000 0.000000 0.000000 -37.976794 3.132762 0.401166 29.057319 1.439524 5.920019 -5.533959 0.780299 -6.190667 0.000000 -0.000001 0.000000 0.000001 -0.000001 -0.000000 -39.046583 -4.180364 -6.248844 29.151251 5.740783 -0.523589 -4.874030 4.228527 2.959875 -0.000000 0.000000 0.000000 0.000002 0.000000 -0.000000 7.767420 1.226883 1.158252 15.299024 2.230014 1.322002 15.310607 2.242084 1.305146 4.790832 1.240935 2.080494 10.107819 7.623548 3.799995 -0.000001 0.000000 -0.000000 -0.000001 0.000000 -0.000000 -0.000001 0.000000 0.000000 -0.000001 0.000000 -0.000000 -0.000001 0.000000 -0.000000 -0.000001 0.000000 -0.000000 -0.000001 0.000000 -0.000000 -0.000001 0.000000 -0.000000 -0.000001 0.000000 -0.000000 -10.675628 -29.047138 -20.213861 -12.500020 -15.811705 -64.814151 -0.000027 -57.700414 -0.000036 -47.165195 47.563026 34.505241 21.817258 -10.537036 16.834337 14.287724 5.468951 16.273663 0.000001 0.000002 0.000002 -2.436554 -1.118892 -27.392282 6.241383 5.838057 -93.831698 0.000001 0.000000 -0.000000 -3.946821 0.614634 -44.455772 5.616884 5.846402 -87.702224 0.000001 0.000001 0.000001 -1.387684 2.855859 -40.868922 6.488214 5.816411 -96.262220 -0.000001 -0.000002 0.000001 1.677026 6.539510 -33.824535 5.030090 5.793400 -81.920107 -0.000000 -0.000000 0.000001 0.000001 -0.000001 -0.000000 -2.331968 16.302307 20.324558 -42.281292 9.569691 67.722193 0.000003 27.206464 0.000010 -20.336034 -31.200328 -1.823484 -4.896632 -21.001068 -24.132373 -15.931305 -14.443029 3.554781 -0.000000 -0.000001 0.000000 0.570528 0.087435 -17.559102 2.902321 -4.314556 67.842247 0.000003 0.000000 0.000000 -3.075709 6.856773 18.099457 5.082660 -4.637730 95.247978 0.000000 0.000000 0.000001 -9.985783 10.197677 36.824637 4.506679 -4.654759 88.146207 0.000001 0.000001 -0.000002 -6.996004 1.660170 49.601349 1.053672 -2.952219 39.277126 -0.000001 0.000002 0.000001 -0.000001 -0.000001 -0.000001 -0.000002 0.000000 0.000000 -0.000002 0.000000 0.000000 -0.000002 0.000000 0.000000 -0.000002 0.000000 0.000000 -0.000002 0.000000 0.000000 -0.000002 0.000000 0.000000 -0.000002 0.000000 0.000000 -0.000002 0.000000 0.000000 -0.000002 0.000000 0.000000 -0.000002 0.000000 0.000000 0.000000 0.000000 0.000000 0.000000 0.000000 0.000000 0.000000 0.000000 0.000000 
-1.674916 67.963463 0.070036 75.915060 -75.418163 76.236905 -0.000000 0.000000 -0.000000 -37.983447 3.136457 0.428097 29.068718 1.464562 5.917219 -5.534866 0.782731 -6.209663 -0.000000 0.000001 -0.000000 -0.000003 -0.000000 -0.000000 -39.057822 -4.186905 -6.231343 29.156452 5.772338 -0.513152 -4.861379 4.234125 2.930533 -0.000000 0.000000 -0.000000 -0.000002 0.000000 -0.000000 7.777524 1.188105 1.127878 15.297482 2.205272 1.317271 15.308025 2.220168 1.300877 4.788037 1.263665 2.062661 10.035966 7.690520 3.841515 -0.000001 0.000002 0.000000 -0.000001 0.000002 0.000000 -0.000001 0.000002 0.000000 -0.000001 0.000002 0.000001 0.000000 0.000002 -0.000000 -0.000001 0.000002 0.000001 0.000000 0.000002 -0.000000 -0.000001 0.000002 0.000000 -0.000001 0.000002 0.000000 -10.657672 -29.051011 -20.169373 -12.521519 -15.890287 -64.865979 0.000005 -57.697572 0.000014 -47.348924 47.454187 34.700578 21.887334 -10.474154 16.784942 14.289056 5.431878 16.241333 0.000001 -0.000000 0.000001 -2.426395 -1.097487 -27.396580 6.243252 5.837926 -93.850207 0.000002 0.000001 -0.000002 -3.942355 0.640424 -44.558324 5.618709 5.846460 -87.720174 0.000001 -0.000000 -0.000003 -1.372026 2.883689 -40.950437 6.488100 5.816420 -96.261230 0.000001 0.000001 -0.000002 1.679347 6.541854 -33.856339 5.031805 5.793626 -81.937067 -0.000001 0.000000 -0.000002 0.000001 0.000001 -0.000001 -2.334343 16.286653 20.351846 -42.231975 9.605447 67.657422 -0.000007 27.321778 0.000000 -20.278859 -31.291890 -1.724395 -4.899305 -20.919748 -24.127092 -15.974726 -14.382459 3.525062 -0.000002 0.000001 0.000001 0.561578 0.058493 -17.573967 2.906869 -4.316405 67.902517 -0.000003 -0.000001 0.000002 -3.124763 6.908401 18.264773 5.087931 -4.637241 95.313125 0.000000 -0.000001 -0.000001 -9.998858 10.171377 36.903328 4.504421 -4.654676 88.118422 0.000001 -0.000001 -0.000001 -7.176813 1.723554 49.956605 1.053472 -2.951990 39.273024 0.000001 0.000001 -0.000001 -0.000000 0.000001 0.000000 -0.000000 -0.000001 0.000000 -0.000000 -0.000001 0.000000 -0.000000 -0.000001 0.000000 -0.000000 -0.000001 0.000000 -0.000000 -0.000001 0.000000 -0.000000 -0.000001 0.000000 -0.000000 -0.000001 0.000000 -0.000000 -0.000001 0.000000 -0.000000 -0.000001 0.000000 -0.000000 -0.000001 0.000000 -0.000000 0.000000 -0.000000 -0.000000 0.000000 -0.000000 -0.000000 0.000000 -0.000000 
-1.666420 67.959473 0.055917 76.117288 -75.430683 76.424585 0.000001 0.000000 -0.000000 -38.009750 3.140215 0.477579 29.107247 1.494235 5.908395 -5.550898 0.785270 -6.225804 0.000000 0.000001 -0.000000 -0.000003 0.000000 -0.000000 -39.073716 -4.193886 -6.195680 29.155725 5.813443 -0.501723 -4.842475 4.236564 2.900579 0.000000 0.000000 0.000000 0.000001 0.000000 -0.000000 7.783003 1.143334 1.093208 15.296700 2.178823 1.315632 15.305884 2.199011 1.299244 4.805212 1.291380 2.040586 9.909076 7.765362 3.889598 0.000001 0.000000 -0.000000 0.000001 0.000000 -0.000000 0.000001 0.000000 0.000000 0.000001 0.000000 -0.000000 0.000001 0.000002 0.000001 0.000001 0.000000 -0.000000 0.000001 0.000002 0.000001 0.000001 0.000000 -0.000000 0.000001 0.000000 -0.000000 -10.649145 -29.077621 -20.144326 -12.522079 -15.907521 -64.847599 -0.000026 -57.697238 -0.000035 -47.450082 47.363715 34.635117 21.973323 -10.389779 16.698976 14.287598 5.369616 16.184895 0.000005 -0.000000 0.000000 -2.416795 -1.069245 -27.430765 6.246216 5.837715 -93.879161 -0.000000 0.000001 -0.000000 -3.929322 0.676379 -44.667467 5.619815 5.846516 -87.730904 0.000001 0.000002 -0.000004 -1.354430 2.914494 -41.039082 6.489118 5.816291 -96.271229 -0.000003 -0.000001 0.000003 1.680789 6.543297 -33.876082 5.036671 5.794326 -81.985342 0.000000 -0.000001 -0.000001 -0.000001 -0.000003 -0.000003 -2.324207 16.269789 20.294813 -42.264791 9.554437 67.723894 0.000022 27.362067 -0.000021 -20.142936 -31.322920 -1.781582 -4.897780 -20.799926 -24.115771 -16.040235 -14.298040 3.484263 -0.000001 0.000002 0.000002 0.547342 0.008797 -17.668364 2.914340 -4.319435 68.001678 0.000001 0.000000 0.000000 -3.174537 6.957042 18.436240 5.091105 -4.636924 95.352432 0.000002 0.000001 -0.000002 -10.012827 10.143908 36.986376 4.504645 -4.654695 88.121113 0.000001 -0.000001 0.000001 -7.373930 1.795080 50.322474 1.052157 -2.950366 39.247561 -0.000001 0.000001 0.000002 -0.000000 0.000002 0.000003 0.000001 0.000000 0.000000 -0.000000 0.000000 -0.000000 0.000001 0.000000 -0.000000 0.000001 0.000000 -0.000000 0.000001 0.000000 0.000000 -0.000000 0.000000 -0.000000 0.000001 0.000000 -0.000000 0.000001 0.000000 -0.000000 0.000001 0.000000 0.000000 -0.000000 0.000000 -0.000000 0.000001 0.000000 -0.000000 0.000001 0.000000 -0.000000 0.000001 0.000000 -0.000000 
-1.658124 67.954597 0.042391 76.391643 -75.445225 76.672814 0.000002 -0.000000 0.000000 -38.045260 3.139232 0.536284 29.161568 1.539650 5.909892 -5.577676 0.787383 -6.248636 -0.000000 -0.000000 0.000000 0.000001 -0.000001 -0.000000 -39.087779 -4.198529 -6.145162 29.145261 5.858652 -0.486784 -4.816865 4.241005 2.869463 0.000000 0.000001 -0.000000 0.000001 0.000000 -0.000000 7.797003 1.088142 1.051865 15.300288 2.145696 1.313429 15.307909 2.171711 1.297384 4.822053 1.323084 2.036586 9.742055 7.889319 3.916395 -0.000003 0.000001 0.000001 -0.000003 0.000001 0.000001 -0.000003 0.000001 0.000001 -0.000003 0.000001 0.000001 -0.000002 0.000001 0.000000 -0.000003 0.000001 0.000001 -0.000002 0.000001 0.000000 -0.000003 0.000001 0.000001 -0.000003 0.000001 0.000001 -10.617280 -29.112510 -20.061541 -12.534591 -15.909145 -64.796113 0.000014 -57.669036 -0.000006 -47.467680 47.267337 34.285542 22.089163 -10.269645 16.565809 14.274698 5.262363 16.105246 0.000004 0.000002 0.000003 -2.406390 -1.030077 -27.500502 6.249075 5.837527 -93.907356 0.000002 0.000000 -0.000002 -3.907121 0.722069 -44.778611 5.620102 5.846519 -87.733725 -0.000000 0.000001 -0.000001 -1.335237 2.948774 -41.143113 6.490489 5.816150 -96.284760 0.000001 0.000002 -0.000003 1.682120 6.544622 -33.894175 5.043167 5.795212 -82.049676 -0.000001 -0.000001 0.000001 -0.000000 0.000002 0.000001 -2.322985 16.250045 20.299233 -42.256584 9.611150 67.763721 0.000005 27.462317 -0.000005 -20.114540 -31.352996 -2.065867 -4.892809 -20.663674 -24.101183 -16.113255 -14.209736 3.438656 0.000001 0.000001 0.000003 0.528422 -0.058488 -17.837606 2.922896 -4.322854 68.115209 0.000001 0.000001 0.000002 -3.219702 6.995434 18.598771 5.092639 -4.636825 95.371161 0.000000 -0.000001 0.000001 -10.026509 10.117573 37.066829 4.506443 -4.654758 88.143120 0.000001 -0.000001 -0.000002 -7.553267 1.864207 50.630270 1.050074 -2.947819 39.207157 0.000000 -0.000000 -0.000001 -0.000000 0.000001 -0.000001 0.000002 -0.000000 0.000000 -0.000002 0.000000 -0.000000 0.000002 -0.000000 -0.000000 0.000002 -0.000000 -0.000000 0.000002 -0.000000 0.000000 -0.000002 0.000000 -0.000000 0.000002 -0.000000 -0.000000 0.000002 -0.000000 -0.000000 0.000002 -0.000000 0.000000 -0.000002 0.000000 -0.000000 0.000002 -0.000000 0.000000 0.000002 -0.000000 0.000000 0.000002 -0.000000 0.000000 
